# xmcd
#
# Track frame offsets: 
#        150
#        18681
#        44660
#        64433
#        101173
#        118022
#        135747
#        150393
#        166810
#        191572
#        211057
#        242487
#        280092
#        297854
#        329130
#
# Disc length: 4566 seconds
#
# Revision: 0
# Processed by: cddbd v1.5.1PL2 Copyright (c) Steve Scherf et al.
# Submitted via: ExactAudioCopy v0.95b1
#
DISCID=e311d40f
DTITLE=Various Artist - Ночное Кафе CD1
DYEAR=2002
DGENRE=Blues
TTITLE0=Barry Adamson - A Perfectly Natural Union
TTITLE1=Harold Budd/Hector Zazou - Pandas In Tandem
TTITLE2=Aeroplanitaliani - Zitti Zitti in Silenzo
TTITLE3=Alien Progeny - Sadhana
TTITLE4=Shahin&Sepehr - Mediterranean Dream
TTITLE5=Bimbo Jet - El Bimbo
TTITLE6=Antonio Carlos Jobim - Look In The Sky
TTITLE7=Black&Brown - Tribal Boogaloo
TTITLE8=Bossa Nostra - Home Is Where The Hearted Is
TTITLE9=Cfm Band - Too Hip
TTITLE10=the Brecker Brothers - Some Skunk Funk
TTITLE11=Fluke - Wobbler
TTITLE12=George Benson - Being With You
TTITLE13=Govi - Embrace
TTITLE14=Henry Mancini - Windmills Of Your Mind
EXTD=
EXTT0=
EXTT1=
EXTT2=
EXTT3=
EXTT4=
EXTT5=
EXTT6=
EXTT7=
EXTT8=
EXTT9=
EXTT10=
EXTT11=
EXTT12=
EXTT13=
EXTT14=
PLAYORDER=
